<mxfile host="www.draw.io" modified="2024-05-08T18:11:34.948Z" agent="Mozilla/5.0 (Windows NT 10.0; Win64; x64) AppleWebKit/537.36 (KHTML, like Gecko) Chrome/124.0.0.0 Safari/537.36 Edg/124.0.0.0" etag="GnXBP1UH-LhZf2i_LyY9" version="24.3.1" type="device">
  <diagram name="Page-1" id="Bp6JuBE_9rbJZGqcfYCg">
    <mxGraphModel dx="3900" dy="1253" grid="1" gridSize="10" guides="1" tooltips="1" connect="1" arrows="1" fold="1" page="1" pageScale="1" pageWidth="850" pageHeight="1100" math="0" shadow="0">
      <root>
        <mxCell id="0" />
        <mxCell id="1" parent="0" />
        <mxCell id="em5ZbAB8ibV0XmdR91Io-6" style="edgeStyle=orthogonalEdgeStyle;rounded=0;orthogonalLoop=1;jettySize=auto;html=1;strokeWidth=3;fontColor=#000000;fontSize=12;fontStyle=1;fontFamily=Helvetica;align=center;" edge="1" parent="1" source="em5ZbAB8ibV0XmdR91Io-1">
          <mxGeometry relative="1" as="geometry">
            <mxPoint x="470" y="210" as="targetPoint" />
          </mxGeometry>
        </mxCell>
        <mxCell id="em5ZbAB8ibV0XmdR91Io-1" value="&lt;h1 style=&quot;font-size: 12px;&quot;&gt;Start&lt;/h1&gt;" style="ellipse;whiteSpace=wrap;html=1;fontSize=12;fontStyle=1;fontFamily=Helvetica;strokeWidth=3;align=center;fontColor=#000000;" vertex="1" parent="1">
          <mxGeometry x="350" y="70" width="240" height="80" as="geometry" />
        </mxCell>
        <mxCell id="em5ZbAB8ibV0XmdR91Io-8" value="" style="edgeStyle=orthogonalEdgeStyle;rounded=0;orthogonalLoop=1;jettySize=auto;html=1;fontColor=#000000;fontSize=12;fontStyle=1;fontFamily=Helvetica;strokeWidth=3;align=center;" edge="1" parent="1" source="em5ZbAB8ibV0XmdR91Io-3" target="em5ZbAB8ibV0XmdR91Io-7">
          <mxGeometry relative="1" as="geometry" />
        </mxCell>
        <mxCell id="em5ZbAB8ibV0XmdR91Io-158" style="edgeStyle=orthogonalEdgeStyle;rounded=0;orthogonalLoop=1;jettySize=auto;html=1;entryX=1;entryY=0;entryDx=0;entryDy=0;strokeWidth=3;fontStyle=1;fontSize=12;align=center;fontFamily=Helvetica;fontColor=#000000;" edge="1" parent="1" source="em5ZbAB8ibV0XmdR91Io-3" target="em5ZbAB8ibV0XmdR91Io-75">
          <mxGeometry relative="1" as="geometry">
            <mxPoint x="850" y="1650" as="targetPoint" />
            <Array as="points">
              <mxPoint x="1250" y="275" />
              <mxPoint x="1250" y="1649" />
            </Array>
          </mxGeometry>
        </mxCell>
        <mxCell id="em5ZbAB8ibV0XmdR91Io-3" value="&lt;div style=&quot;margin-top: 0px; margin-bottom: 0px; font-size: 12px;&quot;&gt;&lt;span style=&quot;font-size: 12px;&quot;&gt;Do you want anything ?&lt;/span&gt;&lt;/div&gt;" style="html=1;whiteSpace=wrap;aspect=fixed;shape=isoRectangle;fontSize=12;fontStyle=1;fontFamily=Helvetica;strokeWidth=3;align=center;fontColor=#000000;" vertex="1" parent="1">
          <mxGeometry x="345" y="200" width="250" height="150" as="geometry" />
        </mxCell>
        <mxCell id="em5ZbAB8ibV0XmdR91Io-24" value="" style="edgeStyle=orthogonalEdgeStyle;rounded=0;orthogonalLoop=1;jettySize=auto;html=1;fontColor=#000000;fontSize=12;fontStyle=1;fontFamily=Helvetica;strokeWidth=3;align=center;" edge="1" parent="1" source="em5ZbAB8ibV0XmdR91Io-7" target="em5ZbAB8ibV0XmdR91Io-15">
          <mxGeometry relative="1" as="geometry" />
        </mxCell>
        <mxCell id="em5ZbAB8ibV0XmdR91Io-86" value="" style="edgeStyle=orthogonalEdgeStyle;rounded=0;orthogonalLoop=1;jettySize=auto;html=1;entryX=1;entryY=0.5;entryDx=0;entryDy=0;strokeWidth=3;fontStyle=1;fontSize=12;align=center;fontFamily=Helvetica;fontColor=#000000;" edge="1" parent="1" source="em5ZbAB8ibV0XmdR91Io-7" target="em5ZbAB8ibV0XmdR91Io-87">
          <mxGeometry relative="1" as="geometry">
            <mxPoint x="250" y="430" as="targetPoint" />
          </mxGeometry>
        </mxCell>
        <mxCell id="em5ZbAB8ibV0XmdR91Io-7" value="&lt;div style=&quot;margin-top: 0px; margin-bottom: 0px; font-size: 12px;&quot;&gt;&lt;span style=&quot;font-size: 12px;&quot;&gt;select login type&lt;/span&gt;&lt;/div&gt;" style="html=1;whiteSpace=wrap;aspect=fixed;shape=isoRectangle;fontSize=12;fontStyle=1;fontFamily=Helvetica;strokeWidth=3;align=center;fontColor=#000000;" vertex="1" parent="1">
          <mxGeometry x="370" y="370" width="200" height="120" as="geometry" />
        </mxCell>
        <mxCell id="em5ZbAB8ibV0XmdR91Io-11" value="yes" style="text;html=1;align=center;verticalAlign=middle;resizable=0;points=[];autosize=1;fontSize=12;fontStyle=1;fontFamily=Helvetica;strokeWidth=3;fontColor=#000000;" vertex="1" parent="1">
          <mxGeometry x="350" y="313" width="40" height="30" as="geometry" />
        </mxCell>
        <mxCell id="em5ZbAB8ibV0XmdR91Io-14" value="User" style="text;html=1;align=center;verticalAlign=middle;resizable=0;points=[];autosize=1;fontSize=12;fontStyle=1;fontFamily=Helvetica;strokeWidth=3;fontColor=#000000;" vertex="1" parent="1">
          <mxGeometry x="570" y="400" width="50" height="30" as="geometry" />
        </mxCell>
        <mxCell id="em5ZbAB8ibV0XmdR91Io-25" value="" style="edgeStyle=orthogonalEdgeStyle;rounded=0;orthogonalLoop=1;jettySize=auto;html=1;fontColor=#000000;fontSize=12;fontStyle=1;fontFamily=Helvetica;strokeWidth=3;align=center;" edge="1" parent="1" source="em5ZbAB8ibV0XmdR91Io-15" target="em5ZbAB8ibV0XmdR91Io-19">
          <mxGeometry relative="1" as="geometry" />
        </mxCell>
        <mxCell id="em5ZbAB8ibV0XmdR91Io-15" value="Enter User Name&amp;nbsp;" style="shape=ext;double=1;rounded=0;whiteSpace=wrap;html=1;fontSize=12;fontStyle=1;fontFamily=Helvetica;strokeWidth=3;align=center;fontColor=#000000;" vertex="1" parent="1">
          <mxGeometry x="580" y="550" width="160" height="80" as="geometry" />
        </mxCell>
        <mxCell id="em5ZbAB8ibV0XmdR91Io-18" value="Incorrect&amp;nbsp;" style="text;html=1;align=center;verticalAlign=middle;resizable=0;points=[];autosize=1;fontSize=12;fontStyle=1;fontFamily=Helvetica;strokeWidth=3;fontColor=#000000;" vertex="1" parent="1">
          <mxGeometry x="505" y="735" width="70" height="30" as="geometry" />
        </mxCell>
        <mxCell id="em5ZbAB8ibV0XmdR91Io-27" style="edgeStyle=orthogonalEdgeStyle;rounded=0;orthogonalLoop=1;jettySize=auto;html=1;exitX=0;exitY=0.75;exitDx=0;exitDy=0;fontColor=#000000;fontSize=12;fontStyle=1;fontFamily=Helvetica;strokeWidth=3;align=center;" edge="1" parent="1" source="em5ZbAB8ibV0XmdR91Io-19">
          <mxGeometry relative="1" as="geometry">
            <mxPoint x="650" y="689.9999999999998" as="targetPoint" />
            <Array as="points">
              <mxPoint x="490" y="770" />
              <mxPoint x="490" y="690" />
            </Array>
          </mxGeometry>
        </mxCell>
        <mxCell id="em5ZbAB8ibV0XmdR91Io-30" value="" style="edgeStyle=orthogonalEdgeStyle;rounded=0;orthogonalLoop=1;jettySize=auto;html=1;fontFamily=Helvetica;fontStyle=1;fontSize=12;fontColor=#000000;strokeWidth=3;align=center;" edge="1" parent="1" source="em5ZbAB8ibV0XmdR91Io-19" target="em5ZbAB8ibV0XmdR91Io-29">
          <mxGeometry relative="1" as="geometry" />
        </mxCell>
        <mxCell id="em5ZbAB8ibV0XmdR91Io-19" value="Enter User password&amp;nbsp;" style="shape=ext;double=1;rounded=0;whiteSpace=wrap;html=1;fontSize=12;fontStyle=1;fontFamily=Helvetica;strokeWidth=3;align=center;fontColor=#000000;" vertex="1" parent="1">
          <mxGeometry x="580" y="710" width="160" height="80" as="geometry" />
        </mxCell>
        <mxCell id="em5ZbAB8ibV0XmdR91Io-22" value="Incorrect&amp;nbsp;" style="text;html=1;align=center;verticalAlign=middle;resizable=0;points=[];autosize=1;fontSize=12;fontStyle=1;fontFamily=Helvetica;strokeWidth=3;fontColor=#000000;" vertex="1" parent="1">
          <mxGeometry x="505" y="575" width="70" height="30" as="geometry" />
        </mxCell>
        <mxCell id="em5ZbAB8ibV0XmdR91Io-28" style="edgeStyle=orthogonalEdgeStyle;rounded=0;orthogonalLoop=1;jettySize=auto;html=1;exitX=0;exitY=0.75;exitDx=0;exitDy=0;fontColor=#000000;fontSize=12;fontStyle=1;fontFamily=Helvetica;strokeWidth=3;align=center;" edge="1" parent="1" source="em5ZbAB8ibV0XmdR91Io-15">
          <mxGeometry relative="1" as="geometry">
            <mxPoint x="649.94" y="529.9999999999998" as="targetPoint" />
            <mxPoint x="549.94" y="609.998823529412" as="sourcePoint" />
            <Array as="points">
              <mxPoint x="490" y="610" />
              <mxPoint x="490" y="530" />
            </Array>
          </mxGeometry>
        </mxCell>
        <mxCell id="em5ZbAB8ibV0XmdR91Io-34" value="" style="edgeStyle=orthogonalEdgeStyle;rounded=0;orthogonalLoop=1;jettySize=auto;html=1;fontFamily=Helvetica;fontStyle=1;fontSize=12;fontColor=#000000;strokeWidth=3;align=center;" edge="1" parent="1" source="em5ZbAB8ibV0XmdR91Io-29" target="em5ZbAB8ibV0XmdR91Io-33">
          <mxGeometry relative="1" as="geometry" />
        </mxCell>
        <mxCell id="em5ZbAB8ibV0XmdR91Io-36" value="" style="edgeStyle=orthogonalEdgeStyle;rounded=0;orthogonalLoop=1;jettySize=auto;html=1;fontFamily=Helvetica;fontStyle=1;fontSize=12;fontColor=#000000;strokeWidth=3;align=center;" edge="1" parent="1" source="em5ZbAB8ibV0XmdR91Io-29" target="em5ZbAB8ibV0XmdR91Io-35">
          <mxGeometry relative="1" as="geometry" />
        </mxCell>
        <mxCell id="em5ZbAB8ibV0XmdR91Io-42" value="" style="edgeStyle=orthogonalEdgeStyle;rounded=0;orthogonalLoop=1;jettySize=auto;html=1;fontFamily=Helvetica;fontStyle=1;fontSize=12;fontColor=#000000;strokeWidth=3;align=center;" edge="1" parent="1" source="em5ZbAB8ibV0XmdR91Io-29" target="em5ZbAB8ibV0XmdR91Io-41">
          <mxGeometry relative="1" as="geometry" />
        </mxCell>
        <mxCell id="em5ZbAB8ibV0XmdR91Io-29" value="&lt;div style=&quot;margin-top: 0px; margin-bottom: 0px; font-size: 12px;&quot;&gt;&lt;span style=&quot;font-size: 12px;&quot;&gt;Do you want to ?&lt;/span&gt;&lt;/div&gt;" style="rhombus;whiteSpace=wrap;html=1;fontSize=12;rounded=0;fontStyle=1;fontFamily=Helvetica;strokeWidth=3;align=center;fontColor=#000000;" vertex="1" parent="1">
          <mxGeometry x="540" y="870" width="240" height="80" as="geometry" />
        </mxCell>
        <mxCell id="em5ZbAB8ibV0XmdR91Io-44" value="" style="edgeStyle=orthogonalEdgeStyle;rounded=0;orthogonalLoop=1;jettySize=auto;html=1;fontFamily=Helvetica;fontStyle=1;fontSize=12;fontColor=#000000;strokeWidth=3;align=center;" edge="1" parent="1" source="em5ZbAB8ibV0XmdR91Io-33" target="em5ZbAB8ibV0XmdR91Io-43">
          <mxGeometry relative="1" as="geometry" />
        </mxCell>
        <mxCell id="em5ZbAB8ibV0XmdR91Io-33" value="Enter Amount&amp;nbsp;" style="whiteSpace=wrap;html=1;fontSize=12;rounded=0;fontStyle=1;fontFamily=Helvetica;strokeWidth=3;align=center;fontColor=#000000;" vertex="1" parent="1">
          <mxGeometry x="920" y="880" width="120" height="60" as="geometry" />
        </mxCell>
        <mxCell id="em5ZbAB8ibV0XmdR91Io-46" value="" style="edgeStyle=orthogonalEdgeStyle;rounded=0;orthogonalLoop=1;jettySize=auto;html=1;fontFamily=Helvetica;fontStyle=1;fontSize=12;fontColor=#000000;strokeWidth=3;align=center;" edge="1" parent="1" source="em5ZbAB8ibV0XmdR91Io-35" target="em5ZbAB8ibV0XmdR91Io-45">
          <mxGeometry relative="1" as="geometry" />
        </mxCell>
        <mxCell id="em5ZbAB8ibV0XmdR91Io-35" value="Enter Amount&amp;nbsp;" style="whiteSpace=wrap;html=1;fontSize=12;rounded=0;fontStyle=1;fontFamily=Helvetica;strokeWidth=3;align=center;fontColor=#000000;" vertex="1" parent="1">
          <mxGeometry x="280" y="880" width="120" height="60" as="geometry" />
        </mxCell>
        <mxCell id="em5ZbAB8ibV0XmdR91Io-37" value="&lt;h1 style=&quot;font-size: 12px;&quot;&gt;&lt;font style=&quot;font-size: 12px;&quot;&gt;Deposit&amp;nbsp;&lt;/font&gt;&lt;/h1&gt;" style="text;html=1;align=center;verticalAlign=middle;resizable=0;points=[];autosize=1;fontSize=12;fontFamily=Helvetica;fontStyle=1;strokeWidth=3;fontColor=#000000;" vertex="1" parent="1">
          <mxGeometry x="795" y="873" width="70" height="40" as="geometry" />
        </mxCell>
        <mxCell id="em5ZbAB8ibV0XmdR91Io-38" value="&lt;h1 style=&quot;font-size: 12px;&quot;&gt;&lt;font style=&quot;font-size: 12px;&quot;&gt;Withdraw&lt;/font&gt;&lt;/h1&gt;" style="text;html=1;align=center;verticalAlign=middle;resizable=0;points=[];autosize=1;fontFamily=Helvetica;fontStyle=1;fontSize=12;strokeWidth=3;fontColor=#000000;" vertex="1" parent="1">
          <mxGeometry x="445" y="873" width="80" height="40" as="geometry" />
        </mxCell>
        <mxCell id="em5ZbAB8ibV0XmdR91Io-39" value="&lt;h1 style=&quot;font-size: 12px;&quot;&gt;&lt;font style=&quot;font-size: 12px;&quot;&gt;Other&lt;/font&gt;&lt;/h1&gt;" style="text;html=1;align=center;verticalAlign=middle;resizable=0;points=[];autosize=1;fontSize=12;fontFamily=Helvetica;fontStyle=1;strokeWidth=3;fontColor=#000000;" vertex="1" parent="1">
          <mxGeometry x="685" y="960" width="60" height="40" as="geometry" />
        </mxCell>
        <mxCell id="em5ZbAB8ibV0XmdR91Io-56" value="" style="edgeStyle=orthogonalEdgeStyle;rounded=0;orthogonalLoop=1;jettySize=auto;html=1;entryX=0.5;entryY=0;entryDx=0;entryDy=0;strokeWidth=3;fontStyle=1;fontSize=12;align=center;fontFamily=Helvetica;fontColor=#000000;" edge="1" parent="1" source="em5ZbAB8ibV0XmdR91Io-41" target="em5ZbAB8ibV0XmdR91Io-57">
          <mxGeometry relative="1" as="geometry">
            <mxPoint x="880" y="1160" as="targetPoint" />
          </mxGeometry>
        </mxCell>
        <mxCell id="em5ZbAB8ibV0XmdR91Io-59" style="edgeStyle=orthogonalEdgeStyle;rounded=0;orthogonalLoop=1;jettySize=auto;html=1;exitX=0.5;exitY=1;exitDx=0;exitDy=0;entryX=0.5;entryY=0;entryDx=0;entryDy=0;strokeWidth=3;fontStyle=1;fontSize=12;align=center;fontFamily=Helvetica;fontColor=#000000;" edge="1" parent="1" source="em5ZbAB8ibV0XmdR91Io-41" target="em5ZbAB8ibV0XmdR91Io-58">
          <mxGeometry relative="1" as="geometry" />
        </mxCell>
        <mxCell id="em5ZbAB8ibV0XmdR91Io-41" value="&lt;font style=&quot;font-size: 12px;&quot;&gt;print balance , update pass&lt;/font&gt;" style="rhombus;whiteSpace=wrap;html=1;fontSize=12;rounded=0;fontStyle=1;fontFamily=Helvetica;strokeWidth=3;align=center;fontColor=#000000;" vertex="1" parent="1">
          <mxGeometry x="560" y="1010" width="250" height="100" as="geometry" />
        </mxCell>
        <mxCell id="em5ZbAB8ibV0XmdR91Io-74" style="edgeStyle=orthogonalEdgeStyle;rounded=0;orthogonalLoop=1;jettySize=auto;html=1;entryX=0.5;entryY=0;entryDx=0;entryDy=0;strokeWidth=3;fontStyle=1;fontSize=12;align=center;fontFamily=Helvetica;fontColor=#000000;" edge="1" parent="1">
          <mxGeometry relative="1" as="geometry">
            <mxPoint x="980" y="1084.0000000000002" as="sourcePoint" />
            <mxPoint x="577.5" y="1324.0000000000002" as="targetPoint" />
            <Array as="points">
              <mxPoint x="980" y="1274" />
              <mxPoint x="578" y="1274" />
            </Array>
          </mxGeometry>
        </mxCell>
        <mxCell id="em5ZbAB8ibV0XmdR91Io-43" value="update new balance&amp;nbsp;" style="whiteSpace=wrap;html=1;fontSize=12;rounded=0;fontStyle=1;fontFamily=Helvetica;strokeWidth=3;align=center;fontColor=#000000;" vertex="1" parent="1">
          <mxGeometry x="920" y="1020" width="120" height="60" as="geometry" />
        </mxCell>
        <mxCell id="em5ZbAB8ibV0XmdR91Io-48" value="" style="edgeStyle=orthogonalEdgeStyle;rounded=0;orthogonalLoop=1;jettySize=auto;html=1;fontFamily=Helvetica;fontStyle=1;fontSize=12;fontColor=#000000;strokeWidth=3;align=center;" edge="1" parent="1" source="em5ZbAB8ibV0XmdR91Io-45" target="em5ZbAB8ibV0XmdR91Io-47">
          <mxGeometry relative="1" as="geometry" />
        </mxCell>
        <mxCell id="em5ZbAB8ibV0XmdR91Io-50" style="edgeStyle=orthogonalEdgeStyle;rounded=0;orthogonalLoop=1;jettySize=auto;html=1;exitX=0;exitY=0.5;exitDx=0;exitDy=0;entryX=0;entryY=0.5;entryDx=0;entryDy=0;fontFamily=Helvetica;fontStyle=1;fontSize=12;fontColor=#000000;strokeWidth=3;align=center;" edge="1" parent="1" source="em5ZbAB8ibV0XmdR91Io-45" target="em5ZbAB8ibV0XmdR91Io-35">
          <mxGeometry relative="1" as="geometry" />
        </mxCell>
        <mxCell id="em5ZbAB8ibV0XmdR91Io-52" style="edgeStyle=orthogonalEdgeStyle;rounded=0;orthogonalLoop=1;jettySize=auto;html=1;exitX=0.5;exitY=1;exitDx=0;exitDy=0;strokeWidth=3;fontStyle=1;fontSize=12;align=center;fontFamily=Helvetica;fontColor=#000000;" edge="1" parent="1" source="em5ZbAB8ibV0XmdR91Io-45">
          <mxGeometry relative="1" as="geometry">
            <mxPoint x="340" y="1110.0000000000002" as="targetPoint" />
          </mxGeometry>
        </mxCell>
        <mxCell id="em5ZbAB8ibV0XmdR91Io-53" style="edgeStyle=orthogonalEdgeStyle;rounded=0;orthogonalLoop=1;jettySize=auto;html=1;exitX=0.5;exitY=1;exitDx=0;exitDy=0;strokeWidth=3;fontStyle=1;fontSize=12;align=center;fontFamily=Helvetica;fontColor=#000000;" edge="1" parent="1" source="em5ZbAB8ibV0XmdR91Io-45">
          <mxGeometry relative="1" as="geometry">
            <mxPoint x="340" y="1110.0000000000002" as="targetPoint" />
          </mxGeometry>
        </mxCell>
        <mxCell id="em5ZbAB8ibV0XmdR91Io-45" value="Amount &amp;lt;= current balance ?" style="rhombus;whiteSpace=wrap;html=1;fontSize=12;rounded=0;fontStyle=1;fontFamily=Helvetica;strokeWidth=3;align=center;fontColor=#000000;" vertex="1" parent="1">
          <mxGeometry x="160" y="1010" width="360" height="100" as="geometry" />
        </mxCell>
        <mxCell id="em5ZbAB8ibV0XmdR91Io-66" value="" style="edgeStyle=orthogonalEdgeStyle;rounded=0;orthogonalLoop=1;jettySize=auto;html=1;strokeWidth=3;fontStyle=1;fontSize=12;align=center;fontFamily=Helvetica;fontColor=#000000;" edge="1" parent="1" source="em5ZbAB8ibV0XmdR91Io-47" target="em5ZbAB8ibV0XmdR91Io-62">
          <mxGeometry relative="1" as="geometry" />
        </mxCell>
        <mxCell id="em5ZbAB8ibV0XmdR91Io-47" value="Give user balance&amp;nbsp;" style="whiteSpace=wrap;html=1;fontSize=12;rounded=0;fontStyle=1;fontFamily=Helvetica;strokeWidth=3;align=center;fontColor=#000000;" vertex="1" parent="1">
          <mxGeometry x="415" y="1170" width="120" height="60" as="geometry" />
        </mxCell>
        <mxCell id="em5ZbAB8ibV0XmdR91Io-49" value="&lt;h1 style=&quot;font-size: 12px;&quot;&gt;&lt;span style=&quot;font-size: 12px;&quot;&gt;Yes&lt;/span&gt;&lt;/h1&gt;" style="text;html=1;align=center;verticalAlign=middle;resizable=0;points=[];autosize=1;fontFamily=Helvetica;fontStyle=1;fontSize=12;strokeWidth=3;fontColor=#000000;" vertex="1" parent="1">
          <mxGeometry x="380" y="1100" width="40" height="40" as="geometry" />
        </mxCell>
        <mxCell id="em5ZbAB8ibV0XmdR91Io-51" value="&lt;h1 style=&quot;font-size: 12px;&quot;&gt;&lt;span style=&quot;font-size: 12px;&quot;&gt;NO&lt;/span&gt;&lt;/h1&gt;" style="text;html=1;align=center;verticalAlign=middle;resizable=0;points=[];autosize=1;fontFamily=Helvetica;fontStyle=1;fontSize=12;strokeWidth=3;fontColor=#000000;" vertex="1" parent="1">
          <mxGeometry x="145" y="993" width="40" height="40" as="geometry" />
        </mxCell>
        <mxCell id="em5ZbAB8ibV0XmdR91Io-73" style="edgeStyle=orthogonalEdgeStyle;rounded=0;orthogonalLoop=1;jettySize=auto;html=1;entryX=0.5;entryY=0;entryDx=0;entryDy=0;strokeWidth=3;fontStyle=1;fontSize=12;align=center;fontFamily=Helvetica;fontColor=#000000;" edge="1" parent="1">
          <mxGeometry relative="1" as="geometry">
            <mxPoint x="577.5" y="1325.0000000000002" as="targetPoint" />
            <mxPoint x="880" y="1235.0000000000002" as="sourcePoint" />
            <Array as="points">
              <mxPoint x="880" y="1275" />
              <mxPoint x="578" y="1275" />
            </Array>
          </mxGeometry>
        </mxCell>
        <mxCell id="em5ZbAB8ibV0XmdR91Io-57" value="&lt;font style=&quot;font-size: 12px;&quot;&gt;Enter New pass&lt;/font&gt;" style="shape=ext;double=1;rounded=0;whiteSpace=wrap;html=1;strokeWidth=3;fontStyle=1;fontSize=12;align=center;fontFamily=Helvetica;fontColor=#000000;" vertex="1" parent="1">
          <mxGeometry x="820" y="1170" width="120" height="60" as="geometry" />
        </mxCell>
        <mxCell id="em5ZbAB8ibV0XmdR91Io-65" value="" style="edgeStyle=orthogonalEdgeStyle;rounded=0;orthogonalLoop=1;jettySize=auto;html=1;strokeWidth=3;fontStyle=1;fontSize=12;align=center;fontFamily=Helvetica;fontColor=#000000;" edge="1" parent="1" source="em5ZbAB8ibV0XmdR91Io-58" target="em5ZbAB8ibV0XmdR91Io-62">
          <mxGeometry relative="1" as="geometry" />
        </mxCell>
        <mxCell id="em5ZbAB8ibV0XmdR91Io-58" value="&lt;h2 style=&quot;font-size: 12px;&quot;&gt;&lt;span style=&quot;font-size: 12px;&quot;&gt;&lt;font style=&quot;font-size: 12px;&quot;&gt;Print Current balance&amp;nbsp;&lt;/font&gt;&lt;/span&gt;&lt;/h2&gt;" style="shape=ext;double=1;rounded=0;whiteSpace=wrap;html=1;strokeWidth=3;fontStyle=1;fontSize=12;align=center;fontFamily=Helvetica;fontColor=#000000;" vertex="1" parent="1">
          <mxGeometry x="625" y="1170" width="120" height="60" as="geometry" />
        </mxCell>
        <mxCell id="em5ZbAB8ibV0XmdR91Io-60" value="balance&amp;nbsp;" style="text;html=1;align=center;verticalAlign=middle;resizable=0;points=[];autosize=1;strokeWidth=3;fontStyle=1;fontSize=12;fontFamily=Helvetica;fontColor=#000000;" vertex="1" parent="1">
          <mxGeometry x="680" y="1110" width="70" height="30" as="geometry" />
        </mxCell>
        <mxCell id="em5ZbAB8ibV0XmdR91Io-61" value="pass" style="text;html=1;align=center;verticalAlign=middle;resizable=0;points=[];autosize=1;strokeWidth=3;fontStyle=1;fontSize=12;fontFamily=Helvetica;fontColor=#000000;" vertex="1" parent="1">
          <mxGeometry x="800" y="1028" width="50" height="30" as="geometry" />
        </mxCell>
        <mxCell id="em5ZbAB8ibV0XmdR91Io-76" style="edgeStyle=orthogonalEdgeStyle;rounded=0;orthogonalLoop=1;jettySize=auto;html=1;strokeWidth=3;fontStyle=1;fontSize=12;align=center;fontFamily=Helvetica;fontColor=#000000;" edge="1" parent="1" source="em5ZbAB8ibV0XmdR91Io-62" target="em5ZbAB8ibV0XmdR91Io-75">
          <mxGeometry relative="1" as="geometry" />
        </mxCell>
        <mxCell id="em5ZbAB8ibV0XmdR91Io-77" style="edgeStyle=orthogonalEdgeStyle;rounded=0;orthogonalLoop=1;jettySize=auto;html=1;exitX=1;exitY=0.5;exitDx=0;exitDy=0;strokeWidth=3;fontStyle=1;fontSize=12;align=center;fontFamily=Helvetica;fontColor=#000000;" edge="1" parent="1" source="em5ZbAB8ibV0XmdR91Io-62">
          <mxGeometry relative="1" as="geometry">
            <mxPoint x="470" y="360" as="targetPoint" />
            <Array as="points">
              <mxPoint x="1080" y="1390" />
              <mxPoint x="1080" y="350" />
              <mxPoint x="470" y="350" />
            </Array>
          </mxGeometry>
        </mxCell>
        <mxCell id="em5ZbAB8ibV0XmdR91Io-79" style="edgeStyle=orthogonalEdgeStyle;rounded=0;orthogonalLoop=1;jettySize=auto;html=1;exitX=1;exitY=0.5;exitDx=0;exitDy=0;strokeWidth=3;fontStyle=1;fontSize=12;align=center;fontFamily=Helvetica;fontColor=#000000;" edge="1" parent="1" source="em5ZbAB8ibV0XmdR91Io-62">
          <mxGeometry relative="1" as="geometry">
            <mxPoint x="770" y="1390.25" as="targetPoint" />
          </mxGeometry>
        </mxCell>
        <mxCell id="em5ZbAB8ibV0XmdR91Io-80" style="edgeStyle=orthogonalEdgeStyle;rounded=0;orthogonalLoop=1;jettySize=auto;html=1;exitX=0;exitY=0.5;exitDx=0;exitDy=0;strokeWidth=3;fontStyle=1;fontSize=12;align=center;fontFamily=Helvetica;fontColor=#000000;" edge="1" parent="1" source="em5ZbAB8ibV0XmdR91Io-62">
          <mxGeometry relative="1" as="geometry">
            <mxPoint x="390" y="1390.25" as="targetPoint" />
          </mxGeometry>
        </mxCell>
        <mxCell id="em5ZbAB8ibV0XmdR91Io-62" value="&lt;span style=&quot;font-size: 12px;&quot;&gt;Do you want anything else ?&lt;/span&gt;" style="rhombus;whiteSpace=wrap;html=1;strokeWidth=3;fontStyle=1;fontSize=12;align=center;fontFamily=Helvetica;fontColor=#000000;" vertex="1" parent="1">
          <mxGeometry x="415" y="1320" width="325" height="140" as="geometry" />
        </mxCell>
        <mxCell id="em5ZbAB8ibV0XmdR91Io-75" value="End" style="ellipse;shape=doubleEllipse;whiteSpace=wrap;html=1;strokeWidth=3;fontStyle=1;fontSize=12;align=center;fontFamily=Helvetica;fontColor=#000000;" vertex="1" parent="1">
          <mxGeometry x="225" y="1640" width="100" height="60" as="geometry" />
        </mxCell>
        <mxCell id="em5ZbAB8ibV0XmdR91Io-92" value="" style="edgeStyle=orthogonalEdgeStyle;rounded=0;orthogonalLoop=1;jettySize=auto;html=1;strokeWidth=3;fontStyle=1;fontSize=12;align=center;fontFamily=Helvetica;fontColor=#000000;" edge="1" parent="1" source="em5ZbAB8ibV0XmdR91Io-87" target="em5ZbAB8ibV0XmdR91Io-91">
          <mxGeometry relative="1" as="geometry">
            <Array as="points">
              <mxPoint x="-325" y="430" />
            </Array>
          </mxGeometry>
        </mxCell>
        <mxCell id="em5ZbAB8ibV0XmdR91Io-94" style="edgeStyle=orthogonalEdgeStyle;rounded=0;orthogonalLoop=1;jettySize=auto;html=1;strokeWidth=3;fontStyle=1;fontSize=12;align=center;fontFamily=Helvetica;fontColor=#000000;" edge="1" parent="1" source="em5ZbAB8ibV0XmdR91Io-87">
          <mxGeometry relative="1" as="geometry">
            <mxPoint x="45" y="430" as="targetPoint" />
            <Array as="points">
              <mxPoint x="-55" y="326" />
              <mxPoint x="45" y="326" />
            </Array>
          </mxGeometry>
        </mxCell>
        <mxCell id="em5ZbAB8ibV0XmdR91Io-87" value="Enter Pass&amp;nbsp;" style="shape=ext;double=1;rounded=0;whiteSpace=wrap;html=1;strokeWidth=3;fontStyle=1;fontSize=12;align=center;fontFamily=Helvetica;fontColor=#000000;" vertex="1" parent="1">
          <mxGeometry x="-115" y="390" width="120" height="80" as="geometry" />
        </mxCell>
        <mxCell id="em5ZbAB8ibV0XmdR91Io-88" value="Admin" style="text;html=1;align=center;verticalAlign=middle;resizable=0;points=[];autosize=1;strokeWidth=3;fontStyle=1;fontSize=12;fontFamily=Helvetica;fontColor=#000000;" vertex="1" parent="1">
          <mxGeometry x="310" y="395" width="60" height="30" as="geometry" />
        </mxCell>
        <mxCell id="em5ZbAB8ibV0XmdR91Io-89" value="Found" style="text;html=1;align=center;verticalAlign=middle;resizable=0;points=[];autosize=1;strokeWidth=3;fontStyle=1;fontSize=12;fontFamily=Helvetica;fontColor=#000000;" vertex="1" parent="1">
          <mxGeometry x="660" y="648" width="60" height="30" as="geometry" />
        </mxCell>
        <mxCell id="em5ZbAB8ibV0XmdR91Io-90" value="correct" style="text;html=1;align=center;verticalAlign=middle;resizable=0;points=[];autosize=1;strokeWidth=3;fontStyle=1;fontSize=12;fontFamily=Helvetica;fontColor=#000000;" vertex="1" parent="1">
          <mxGeometry x="660" y="818" width="60" height="30" as="geometry" />
        </mxCell>
        <mxCell id="em5ZbAB8ibV0XmdR91Io-100" value="" style="edgeStyle=orthogonalEdgeStyle;rounded=0;orthogonalLoop=1;jettySize=auto;html=1;strokeWidth=3;fontStyle=1;fontSize=12;align=center;fontFamily=Helvetica;fontColor=#000000;" edge="1" parent="1" source="em5ZbAB8ibV0XmdR91Io-91" target="em5ZbAB8ibV0XmdR91Io-99">
          <mxGeometry relative="1" as="geometry" />
        </mxCell>
        <mxCell id="em5ZbAB8ibV0XmdR91Io-102" value="" style="edgeStyle=orthogonalEdgeStyle;rounded=0;orthogonalLoop=1;jettySize=auto;html=1;strokeWidth=3;fontStyle=1;fontSize=12;align=center;fontFamily=Helvetica;fontColor=#000000;" edge="1" parent="1" source="em5ZbAB8ibV0XmdR91Io-91" target="em5ZbAB8ibV0XmdR91Io-101">
          <mxGeometry relative="1" as="geometry" />
        </mxCell>
        <mxCell id="em5ZbAB8ibV0XmdR91Io-104" value="" style="edgeStyle=orthogonalEdgeStyle;rounded=0;orthogonalLoop=1;jettySize=auto;html=1;strokeWidth=3;fontStyle=1;fontSize=12;align=center;fontFamily=Helvetica;fontColor=#000000;" edge="1" parent="1" source="em5ZbAB8ibV0XmdR91Io-91" target="em5ZbAB8ibV0XmdR91Io-103">
          <mxGeometry relative="1" as="geometry" />
        </mxCell>
        <mxCell id="em5ZbAB8ibV0XmdR91Io-111" style="edgeStyle=orthogonalEdgeStyle;rounded=0;orthogonalLoop=1;jettySize=auto;html=1;exitX=0.5;exitY=1;exitDx=0;exitDy=0;entryX=0.5;entryY=0;entryDx=0;entryDy=0;strokeWidth=3;fontStyle=1;fontSize=12;align=center;fontFamily=Helvetica;fontColor=#000000;" edge="1" parent="1" target="em5ZbAB8ibV0XmdR91Io-112">
          <mxGeometry relative="1" as="geometry">
            <mxPoint x="-545" y="730" as="targetPoint" />
            <mxPoint x="-335" y="648" as="sourcePoint" />
            <Array as="points">
              <mxPoint x="-545" y="648" />
            </Array>
          </mxGeometry>
        </mxCell>
        <mxCell id="em5ZbAB8ibV0XmdR91Io-91" value="&lt;span style=&quot;font-size: 12px;&quot;&gt;Select Admin Options ?&lt;/span&gt;" style="rhombus;whiteSpace=wrap;html=1;rounded=0;strokeWidth=3;fontStyle=1;fontSize=12;align=center;fontFamily=Helvetica;fontColor=#000000;" vertex="1" parent="1">
          <mxGeometry x="-475" y="568" width="300" height="80" as="geometry" />
        </mxCell>
        <mxCell id="em5ZbAB8ibV0XmdR91Io-93" value="correct&amp;nbsp;" style="text;html=1;align=center;verticalAlign=middle;resizable=0;points=[];autosize=1;strokeWidth=3;fontStyle=1;fontSize=12;fontFamily=Helvetica;fontColor=#000000;" vertex="1" parent="1">
          <mxGeometry x="-255" y="395" width="60" height="30" as="geometry" />
        </mxCell>
        <mxCell id="em5ZbAB8ibV0XmdR91Io-96" value="incorrect" style="text;html=1;align=center;verticalAlign=middle;resizable=0;points=[];autosize=1;strokeWidth=3;fontStyle=1;fontSize=12;fontFamily=Helvetica;fontColor=#000000;" vertex="1" parent="1">
          <mxGeometry x="-60" y="348" width="70" height="30" as="geometry" />
        </mxCell>
        <mxCell id="em5ZbAB8ibV0XmdR91Io-115" value="" style="edgeStyle=orthogonalEdgeStyle;rounded=0;orthogonalLoop=1;jettySize=auto;html=1;strokeWidth=3;fontStyle=1;fontSize=12;align=center;fontFamily=Helvetica;fontColor=#000000;" edge="1" parent="1" source="em5ZbAB8ibV0XmdR91Io-99" target="em5ZbAB8ibV0XmdR91Io-114">
          <mxGeometry relative="1" as="geometry" />
        </mxCell>
        <mxCell id="em5ZbAB8ibV0XmdR91Io-99" value="Enter User Name&amp;nbsp;" style="rounded=0;whiteSpace=wrap;html=1;strokeWidth=3;fontStyle=1;fontSize=12;align=center;fontFamily=Helvetica;fontColor=#000000;" vertex="1" parent="1">
          <mxGeometry x="-385" y="738" width="120" height="60" as="geometry" />
        </mxCell>
        <mxCell id="em5ZbAB8ibV0XmdR91Io-125" value="" style="edgeStyle=orthogonalEdgeStyle;rounded=0;orthogonalLoop=1;jettySize=auto;html=1;strokeWidth=3;fontStyle=1;fontSize=12;align=center;fontFamily=Helvetica;fontColor=#000000;" edge="1" parent="1" source="em5ZbAB8ibV0XmdR91Io-101" target="em5ZbAB8ibV0XmdR91Io-124">
          <mxGeometry relative="1" as="geometry">
            <Array as="points">
              <mxPoint x="-770" y="768" />
              <mxPoint x="-870" y="768" />
            </Array>
          </mxGeometry>
        </mxCell>
        <mxCell id="em5ZbAB8ibV0XmdR91Io-101" value="Enter User Name&amp;nbsp;" style="rounded=0;whiteSpace=wrap;html=1;strokeWidth=3;fontStyle=1;fontSize=12;align=center;fontFamily=Helvetica;fontColor=#000000;" vertex="1" parent="1">
          <mxGeometry x="-800" y="578" width="120" height="60" as="geometry" />
        </mxCell>
        <mxCell id="em5ZbAB8ibV0XmdR91Io-119" value="" style="edgeStyle=orthogonalEdgeStyle;rounded=0;orthogonalLoop=1;jettySize=auto;html=1;strokeWidth=3;fontStyle=1;fontSize=12;align=center;fontFamily=Helvetica;fontColor=#000000;" edge="1" parent="1" source="em5ZbAB8ibV0XmdR91Io-103" target="em5ZbAB8ibV0XmdR91Io-118">
          <mxGeometry relative="1" as="geometry" />
        </mxCell>
        <mxCell id="em5ZbAB8ibV0XmdR91Io-103" value="Enter User Name&amp;nbsp;" style="whiteSpace=wrap;html=1;rounded=0;strokeWidth=3;fontStyle=1;fontSize=12;align=center;fontFamily=Helvetica;fontColor=#000000;" vertex="1" parent="1">
          <mxGeometry x="-45" y="578" width="120" height="60" as="geometry" />
        </mxCell>
        <mxCell id="em5ZbAB8ibV0XmdR91Io-106" value="&lt;span style=&quot;text-wrap: wrap; font-size: 12px;&quot;&gt;Display user&lt;/span&gt;" style="text;html=1;align=center;verticalAlign=middle;resizable=0;points=[];autosize=1;strokeWidth=3;fontStyle=1;fontSize=12;fontFamily=Helvetica;fontColor=#000000;" vertex="1" parent="1">
          <mxGeometry x="-175" y="568" width="90" height="30" as="geometry" />
        </mxCell>
        <mxCell id="em5ZbAB8ibV0XmdR91Io-107" value="Update User" style="text;html=1;align=center;verticalAlign=middle;resizable=0;points=[];autosize=1;strokeWidth=3;fontStyle=1;fontSize=12;fontFamily=Helvetica;fontColor=#000000;" vertex="1" parent="1">
          <mxGeometry x="-550" y="558" width="90" height="30" as="geometry" />
        </mxCell>
        <mxCell id="em5ZbAB8ibV0XmdR91Io-108" value="Delete User" style="text;html=1;align=center;verticalAlign=middle;resizable=0;points=[];autosize=1;strokeWidth=3;fontStyle=1;fontSize=12;fontFamily=Helvetica;fontColor=#000000;" vertex="1" parent="1">
          <mxGeometry x="-330" y="648" width="90" height="30" as="geometry" />
        </mxCell>
        <mxCell id="em5ZbAB8ibV0XmdR91Io-117" value="" style="edgeStyle=orthogonalEdgeStyle;rounded=0;orthogonalLoop=1;jettySize=auto;html=1;strokeWidth=3;fontStyle=1;fontSize=12;align=center;fontFamily=Helvetica;fontColor=#000000;" edge="1" parent="1" source="em5ZbAB8ibV0XmdR91Io-112" target="em5ZbAB8ibV0XmdR91Io-116">
          <mxGeometry relative="1" as="geometry">
            <Array as="points">
              <mxPoint x="-540" y="908" />
            </Array>
          </mxGeometry>
        </mxCell>
        <mxCell id="em5ZbAB8ibV0XmdR91Io-112" value="Enter new&amp;nbsp; User Name&amp;nbsp;" style="rounded=0;whiteSpace=wrap;html=1;strokeWidth=3;fontStyle=1;fontSize=12;align=center;fontFamily=Helvetica;fontColor=#000000;" vertex="1" parent="1">
          <mxGeometry x="-605" y="738" width="120" height="60" as="geometry" />
        </mxCell>
        <mxCell id="em5ZbAB8ibV0XmdR91Io-113" value="Add User" style="text;html=1;align=center;verticalAlign=middle;resizable=0;points=[];autosize=1;strokeWidth=3;fontStyle=1;fontSize=12;fontFamily=Helvetica;fontColor=#000000;" vertex="1" parent="1">
          <mxGeometry x="-490" y="648" width="70" height="30" as="geometry" />
        </mxCell>
        <mxCell id="em5ZbAB8ibV0XmdR91Io-131" style="edgeStyle=orthogonalEdgeStyle;rounded=0;orthogonalLoop=1;jettySize=auto;html=1;exitX=0;exitY=0.5;exitDx=0;exitDy=0;entryX=0.01;entryY=1.2;entryDx=0;entryDy=0;entryPerimeter=0;strokeWidth=3;fontStyle=1;fontSize=12;align=center;fontFamily=Helvetica;fontColor=#000000;" edge="1" parent="1" source="em5ZbAB8ibV0XmdR91Io-114">
          <mxGeometry relative="1" as="geometry">
            <mxPoint x="-372.0999999999999" y="690" as="targetPoint" />
            <mxPoint x="-458" y="905.9999999999998" as="sourcePoint" />
            <Array as="points">
              <mxPoint x="-440" y="930" />
              <mxPoint x="-440" y="690" />
            </Array>
          </mxGeometry>
        </mxCell>
        <mxCell id="em5ZbAB8ibV0XmdR91Io-138" value="" style="edgeStyle=orthogonalEdgeStyle;rounded=0;orthogonalLoop=1;jettySize=auto;html=1;strokeWidth=3;fontStyle=1;fontSize=12;align=center;fontFamily=Helvetica;fontColor=#000000;" edge="1" parent="1" source="em5ZbAB8ibV0XmdR91Io-114" target="em5ZbAB8ibV0XmdR91Io-137">
          <mxGeometry relative="1" as="geometry" />
        </mxCell>
        <mxCell id="em5ZbAB8ibV0XmdR91Io-114" value="&lt;div style=&quot;margin-top: 0px; margin-bottom: 0px; font-size: 12px;&quot;&gt;Username exists ?&lt;/div&gt;" style="rhombus;whiteSpace=wrap;html=1;rounded=0;strokeWidth=3;fontStyle=1;fontSize=12;align=center;fontFamily=Helvetica;fontColor=#000000;" vertex="1" parent="1">
          <mxGeometry x="-420" y="890" width="190" height="80" as="geometry" />
        </mxCell>
        <mxCell id="em5ZbAB8ibV0XmdR91Io-130" style="edgeStyle=orthogonalEdgeStyle;rounded=0;orthogonalLoop=1;jettySize=auto;html=1;exitX=0;exitY=0.5;exitDx=0;exitDy=0;strokeWidth=3;fontStyle=1;fontSize=12;align=center;fontFamily=Helvetica;fontColor=#000000;" edge="1" parent="1" source="em5ZbAB8ibV0XmdR91Io-116">
          <mxGeometry relative="1" as="geometry">
            <mxPoint x="-590" y="690" as="targetPoint" />
            <mxPoint x="-740" y="939.9999999999998" as="sourcePoint" />
            <Array as="points">
              <mxPoint x="-700" y="690" />
            </Array>
          </mxGeometry>
        </mxCell>
        <mxCell id="em5ZbAB8ibV0XmdR91Io-140" value="" style="edgeStyle=orthogonalEdgeStyle;rounded=0;orthogonalLoop=1;jettySize=auto;html=1;strokeWidth=3;fontStyle=1;fontSize=12;align=center;fontFamily=Helvetica;fontColor=#000000;" edge="1" parent="1" source="em5ZbAB8ibV0XmdR91Io-116" target="em5ZbAB8ibV0XmdR91Io-139">
          <mxGeometry relative="1" as="geometry" />
        </mxCell>
        <mxCell id="em5ZbAB8ibV0XmdR91Io-116" value="&lt;div style=&quot;margin-top: 0px; margin-bottom: 0px; font-size: 12px;&quot;&gt;Username exists ?&lt;/div&gt;" style="rhombus;whiteSpace=wrap;html=1;rounded=0;strokeWidth=3;fontStyle=1;fontSize=12;align=center;fontFamily=Helvetica;fontColor=#000000;" vertex="1" parent="1">
          <mxGeometry x="-700" y="890" width="190" height="80" as="geometry" />
        </mxCell>
        <mxCell id="em5ZbAB8ibV0XmdR91Io-126" style="edgeStyle=orthogonalEdgeStyle;rounded=0;orthogonalLoop=1;jettySize=auto;html=1;strokeWidth=3;fontStyle=1;fontSize=12;align=center;fontFamily=Helvetica;fontColor=#000000;" edge="1" parent="1" source="em5ZbAB8ibV0XmdR91Io-118">
          <mxGeometry relative="1" as="geometry">
            <mxPoint x="-150" y="610" as="targetPoint" />
            <Array as="points">
              <mxPoint x="-190" y="930" />
              <mxPoint x="-190" y="747" />
              <mxPoint x="-149" y="747" />
              <mxPoint x="-149" y="610" />
            </Array>
          </mxGeometry>
        </mxCell>
        <mxCell id="em5ZbAB8ibV0XmdR91Io-129" value="" style="edgeStyle=orthogonalEdgeStyle;rounded=0;orthogonalLoop=1;jettySize=auto;html=1;strokeWidth=3;fontStyle=1;fontSize=12;align=center;fontFamily=Helvetica;fontColor=#000000;" edge="1" parent="1" source="em5ZbAB8ibV0XmdR91Io-118" target="em5ZbAB8ibV0XmdR91Io-128">
          <mxGeometry relative="1" as="geometry" />
        </mxCell>
        <mxCell id="em5ZbAB8ibV0XmdR91Io-118" value="&lt;div style=&quot;margin-top: 0px; margin-bottom: 0px; font-size: 12px;&quot;&gt;Username exists ?&lt;/div&gt;" style="rhombus;whiteSpace=wrap;html=1;rounded=0;strokeWidth=3;fontStyle=1;fontSize=12;align=center;fontFamily=Helvetica;fontColor=#000000;" vertex="1" parent="1">
          <mxGeometry x="-140" y="890" width="195" height="80" as="geometry" />
        </mxCell>
        <mxCell id="em5ZbAB8ibV0XmdR91Io-135" style="edgeStyle=orthogonalEdgeStyle;rounded=0;orthogonalLoop=1;jettySize=auto;html=1;exitX=0;exitY=0.5;exitDx=0;exitDy=0;strokeWidth=3;fontStyle=1;fontSize=12;align=center;fontFamily=Helvetica;fontColor=#000000;" edge="1" parent="1" source="em5ZbAB8ibV0XmdR91Io-124">
          <mxGeometry relative="1" as="geometry">
            <mxPoint x="-740" y="580" as="targetPoint" />
            <mxPoint x="-1089.9999999999998" y="907.9999999999998" as="sourcePoint" />
            <Array as="points">
              <mxPoint x="-1020" y="938" />
              <mxPoint x="-1020" y="460" />
              <mxPoint x="-740" y="460" />
            </Array>
          </mxGeometry>
        </mxCell>
        <mxCell id="em5ZbAB8ibV0XmdR91Io-142" value="" style="edgeStyle=orthogonalEdgeStyle;rounded=0;orthogonalLoop=1;jettySize=auto;html=1;strokeWidth=3;fontStyle=1;fontSize=12;align=center;fontFamily=Helvetica;fontColor=#000000;" edge="1" parent="1" source="em5ZbAB8ibV0XmdR91Io-124" target="em5ZbAB8ibV0XmdR91Io-141">
          <mxGeometry relative="1" as="geometry" />
        </mxCell>
        <mxCell id="em5ZbAB8ibV0XmdR91Io-124" value="&lt;div style=&quot;margin-top: 0px; margin-bottom: 0px; font-size: 12px;&quot;&gt;Username exists ?&lt;/div&gt;" style="rhombus;whiteSpace=wrap;html=1;rounded=0;strokeWidth=3;fontStyle=1;fontSize=12;align=center;fontFamily=Helvetica;fontColor=#000000;" vertex="1" parent="1">
          <mxGeometry x="-950" y="898" width="160" height="80" as="geometry" />
        </mxCell>
        <mxCell id="em5ZbAB8ibV0XmdR91Io-127" value="No&amp;nbsp;" style="text;html=1;align=center;verticalAlign=middle;resizable=0;points=[];autosize=1;strokeWidth=3;fontStyle=1;fontSize=12;fontFamily=Helvetica;fontColor=#000000;" vertex="1" parent="1">
          <mxGeometry x="-160" y="868" width="40" height="30" as="geometry" />
        </mxCell>
        <mxCell id="em5ZbAB8ibV0XmdR91Io-151" style="edgeStyle=orthogonalEdgeStyle;rounded=1;orthogonalLoop=1;jettySize=auto;html=1;curved=0;strokeWidth=3;fontStyle=1;fontSize=12;align=center;fontFamily=Helvetica;fontColor=#000000;" edge="1" parent="1" source="em5ZbAB8ibV0XmdR91Io-128" target="em5ZbAB8ibV0XmdR91Io-150">
          <mxGeometry relative="1" as="geometry">
            <Array as="points">
              <mxPoint x="-42" y="1190" />
              <mxPoint x="-400" y="1190" />
            </Array>
          </mxGeometry>
        </mxCell>
        <mxCell id="em5ZbAB8ibV0XmdR91Io-128" value="Print Info of user" style="rounded=0;whiteSpace=wrap;html=1;strokeWidth=3;fontStyle=1;fontSize=12;align=center;fontFamily=Helvetica;fontColor=#000000;" vertex="1" parent="1">
          <mxGeometry x="-102.5" y="1053" width="120" height="60" as="geometry" />
        </mxCell>
        <mxCell id="em5ZbAB8ibV0XmdR91Io-133" value="NO" style="text;html=1;align=center;verticalAlign=middle;resizable=0;points=[];autosize=1;strokeWidth=3;fontStyle=1;fontSize=12;fontFamily=Helvetica;fontColor=#000000;" vertex="1" parent="1">
          <mxGeometry x="-430" y="868" width="40" height="30" as="geometry" />
        </mxCell>
        <mxCell id="em5ZbAB8ibV0XmdR91Io-134" value="Yes" style="text;html=1;align=center;verticalAlign=middle;resizable=0;points=[];autosize=1;strokeWidth=3;fontStyle=1;fontSize=12;fontFamily=Helvetica;fontColor=#000000;" vertex="1" parent="1">
          <mxGeometry x="-690" y="878" width="40" height="30" as="geometry" />
        </mxCell>
        <mxCell id="em5ZbAB8ibV0XmdR91Io-136" value="NO" style="text;html=1;align=center;verticalAlign=middle;resizable=0;points=[];autosize=1;strokeWidth=3;fontStyle=1;fontSize=12;fontFamily=Helvetica;fontColor=#000000;" vertex="1" parent="1">
          <mxGeometry x="-980" y="898" width="40" height="30" as="geometry" />
        </mxCell>
        <mxCell id="em5ZbAB8ibV0XmdR91Io-154" style="edgeStyle=orthogonalEdgeStyle;rounded=0;orthogonalLoop=1;jettySize=auto;html=1;exitX=0.5;exitY=1;exitDx=0;exitDy=0;strokeWidth=3;fontStyle=1;fontSize=12;align=center;fontFamily=Helvetica;fontColor=#000000;" edge="1" parent="1" source="em5ZbAB8ibV0XmdR91Io-137">
          <mxGeometry relative="1" as="geometry">
            <mxPoint x="-325.33333333333303" y="1190" as="targetPoint" />
          </mxGeometry>
        </mxCell>
        <mxCell id="em5ZbAB8ibV0XmdR91Io-137" value="Print deleted&amp;nbsp;" style="whiteSpace=wrap;html=1;rounded=0;strokeWidth=3;fontStyle=1;fontSize=12;align=center;fontFamily=Helvetica;fontColor=#000000;" vertex="1" parent="1">
          <mxGeometry x="-385" y="1060" width="120" height="60" as="geometry" />
        </mxCell>
        <mxCell id="em5ZbAB8ibV0XmdR91Io-155" style="edgeStyle=orthogonalEdgeStyle;rounded=0;orthogonalLoop=1;jettySize=auto;html=1;strokeWidth=3;fontStyle=1;fontSize=12;align=center;fontFamily=Helvetica;fontColor=#000000;" edge="1" parent="1" source="em5ZbAB8ibV0XmdR91Io-139">
          <mxGeometry relative="1" as="geometry">
            <mxPoint x="-400" y="1200" as="targetPoint" />
            <Array as="points">
              <mxPoint x="-605" y="1190" />
              <mxPoint x="-399" y="1190" />
              <mxPoint x="-399" y="1200" />
            </Array>
          </mxGeometry>
        </mxCell>
        <mxCell id="em5ZbAB8ibV0XmdR91Io-139" value="Enter Password" style="whiteSpace=wrap;html=1;rounded=0;strokeWidth=3;fontStyle=1;fontSize=12;align=center;fontFamily=Helvetica;fontColor=#000000;" vertex="1" parent="1">
          <mxGeometry x="-665" y="1060" width="120" height="60" as="geometry" />
        </mxCell>
        <mxCell id="em5ZbAB8ibV0XmdR91Io-144" value="" style="edgeStyle=orthogonalEdgeStyle;rounded=0;orthogonalLoop=1;jettySize=auto;html=1;strokeWidth=3;fontStyle=1;fontSize=12;align=center;fontFamily=Helvetica;fontColor=#000000;" edge="1" parent="1" source="em5ZbAB8ibV0XmdR91Io-141" target="em5ZbAB8ibV0XmdR91Io-143">
          <mxGeometry relative="1" as="geometry" />
        </mxCell>
        <mxCell id="em5ZbAB8ibV0XmdR91Io-141" value="Enter&amp;nbsp; New User Name&amp;nbsp;" style="whiteSpace=wrap;html=1;rounded=0;strokeWidth=3;fontStyle=1;fontSize=12;align=center;fontFamily=Helvetica;fontColor=#000000;" vertex="1" parent="1">
          <mxGeometry x="-930" y="1053" width="120" height="60" as="geometry" />
        </mxCell>
        <mxCell id="em5ZbAB8ibV0XmdR91Io-145" style="edgeStyle=orthogonalEdgeStyle;rounded=0;orthogonalLoop=1;jettySize=auto;html=1;strokeWidth=3;fontStyle=1;fontSize=12;align=center;fontFamily=Helvetica;fontColor=#000000;" edge="1" parent="1" source="em5ZbAB8ibV0XmdR91Io-143">
          <mxGeometry relative="1" as="geometry">
            <mxPoint x="-870" y="1020" as="targetPoint" />
            <Array as="points">
              <mxPoint x="-965" y="1223" />
              <mxPoint x="-965" y="1020" />
              <mxPoint x="-960" y="1020" />
            </Array>
          </mxGeometry>
        </mxCell>
        <mxCell id="em5ZbAB8ibV0XmdR91Io-149" value="" style="edgeStyle=orthogonalEdgeStyle;rounded=0;orthogonalLoop=1;jettySize=auto;html=1;strokeWidth=3;fontStyle=1;fontSize=12;align=center;fontFamily=Helvetica;fontColor=#000000;" edge="1" parent="1" source="em5ZbAB8ibV0XmdR91Io-143" target="em5ZbAB8ibV0XmdR91Io-148">
          <mxGeometry relative="1" as="geometry" />
        </mxCell>
        <mxCell id="em5ZbAB8ibV0XmdR91Io-143" value="&lt;div style=&quot;margin-top: 0px; margin-bottom: 0px; font-size: 12px;&quot;&gt;Username exists ?&lt;/div&gt;" style="rhombus;whiteSpace=wrap;html=1;rounded=0;strokeWidth=3;fontStyle=1;fontSize=12;align=center;fontFamily=Helvetica;fontColor=#000000;" vertex="1" parent="1">
          <mxGeometry x="-945" y="1183" width="150" height="80" as="geometry" />
        </mxCell>
        <mxCell id="em5ZbAB8ibV0XmdR91Io-147" value="Yes" style="text;html=1;align=center;verticalAlign=middle;resizable=0;points=[];autosize=1;strokeWidth=3;fontStyle=1;fontSize=12;fontFamily=Helvetica;fontColor=#000000;" vertex="1" parent="1">
          <mxGeometry x="-960" y="1168" width="40" height="30" as="geometry" />
        </mxCell>
        <mxCell id="em5ZbAB8ibV0XmdR91Io-156" style="edgeStyle=orthogonalEdgeStyle;rounded=1;orthogonalLoop=1;jettySize=auto;html=1;exitX=1;exitY=0.5;exitDx=0;exitDy=0;fontFamily=Helvetica;curved=0;strokeWidth=3;fontStyle=1;fontSize=12;align=center;fontColor=#000000;" edge="1" parent="1" source="em5ZbAB8ibV0XmdR91Io-148">
          <mxGeometry relative="1" as="geometry">
            <mxPoint x="-600" y="1190" as="targetPoint" />
          </mxGeometry>
        </mxCell>
        <mxCell id="em5ZbAB8ibV0XmdR91Io-148" value="Enter Password&amp;nbsp;" style="whiteSpace=wrap;html=1;rounded=0;strokeWidth=3;fontStyle=1;fontSize=12;align=center;fontFamily=Helvetica;fontColor=#000000;" vertex="1" parent="1">
          <mxGeometry x="-930" y="1353" width="120" height="60" as="geometry" />
        </mxCell>
        <mxCell id="em5ZbAB8ibV0XmdR91Io-157" style="edgeStyle=orthogonalEdgeStyle;rounded=0;orthogonalLoop=1;jettySize=auto;html=1;strokeWidth=3;fontStyle=1;fontSize=12;align=center;fontFamily=Helvetica;fontColor=#000000;" edge="1" parent="1">
          <mxGeometry relative="1" as="geometry">
            <mxPoint x="475" y="370.14" as="targetPoint" />
            <mxPoint x="-394.99999999999955" y="1390.1399999999996" as="sourcePoint" />
            <Array as="points">
              <mxPoint x="-395" y="1560.14" />
              <mxPoint x="-1295" y="1560.14" />
              <mxPoint x="-1295" y="150.14" />
              <mxPoint x="-395" y="150.14" />
              <mxPoint x="-395" y="140.14" />
              <mxPoint x="325" y="140.14" />
              <mxPoint x="325" y="369.14" />
            </Array>
          </mxGeometry>
        </mxCell>
        <mxCell id="em5ZbAB8ibV0XmdR91Io-160" style="edgeStyle=orthogonalEdgeStyle;rounded=0;orthogonalLoop=1;jettySize=auto;html=1;entryX=0;entryY=0.5;entryDx=0;entryDy=0;strokeWidth=3;fontStyle=1;fontSize=12;align=center;fontFamily=Helvetica;fontColor=#000000;" edge="1" parent="1">
          <mxGeometry relative="1" as="geometry">
            <mxPoint x="225" y="1657" as="targetPoint" />
            <mxPoint x="-230" y="1297" as="sourcePoint" />
            <Array as="points">
              <mxPoint x="-59" y="1297" />
              <mxPoint x="-59" y="1657" />
            </Array>
          </mxGeometry>
        </mxCell>
        <mxCell id="em5ZbAB8ibV0XmdR91Io-150" value="&lt;span style=&quot;font-size: 12px;&quot;&gt;Do you want anything else ?&lt;/span&gt;" style="rhombus;whiteSpace=wrap;html=1;strokeWidth=3;fontStyle=1;fontSize=12;align=center;fontFamily=Helvetica;fontColor=#000000;" vertex="1" parent="1">
          <mxGeometry x="-570" y="1240" width="340" height="140" as="geometry" />
        </mxCell>
        <mxCell id="em5ZbAB8ibV0XmdR91Io-161" value="NO" style="text;html=1;align=center;verticalAlign=middle;resizable=0;points=[];autosize=1;strokeColor=none;fillColor=none;fontStyle=1;fontSize=12;fontFamily=Helvetica;fontColor=#000000;" vertex="1" parent="1">
          <mxGeometry x="-240" y="1328" width="40" height="30" as="geometry" />
        </mxCell>
        <mxCell id="em5ZbAB8ibV0XmdR91Io-162" value="Yes" style="text;html=1;align=center;verticalAlign=middle;resizable=0;points=[];autosize=1;strokeColor=none;fillColor=none;fontStyle=1;fontSize=12;fontFamily=Helvetica;fontColor=#000000;" vertex="1" parent="1">
          <mxGeometry x="-470" y="1448" width="40" height="30" as="geometry" />
        </mxCell>
        <mxCell id="em5ZbAB8ibV0XmdR91Io-163" value="NO" style="text;html=1;align=center;verticalAlign=middle;resizable=0;points=[];autosize=1;strokeColor=none;fillColor=none;fontStyle=1;fontSize=12;fontFamily=Helvetica;fontColor=#000000;" vertex="1" parent="1">
          <mxGeometry x="650" y="198" width="40" height="30" as="geometry" />
        </mxCell>
        <mxCell id="em5ZbAB8ibV0XmdR91Io-164" value="YES" style="text;html=1;align=center;verticalAlign=middle;resizable=0;points=[];autosize=1;strokeColor=none;fillColor=none;fontStyle=1;fontSize=12;fontFamily=Helvetica;fontColor=#000000;" vertex="1" parent="1">
          <mxGeometry x="-865" y="998" width="50" height="30" as="geometry" />
        </mxCell>
        <mxCell id="em5ZbAB8ibV0XmdR91Io-166" value="YES" style="text;html=1;align=center;verticalAlign=middle;resizable=0;points=[];autosize=1;strokeColor=none;fillColor=none;fontStyle=1;fontSize=12;fontFamily=Helvetica;fontColor=#000000;" vertex="1" parent="1">
          <mxGeometry x="-20" y="993" width="50" height="30" as="geometry" />
        </mxCell>
        <mxCell id="em5ZbAB8ibV0XmdR91Io-167" value="YES" style="text;html=1;align=center;verticalAlign=middle;resizable=0;points=[];autosize=1;strokeColor=none;fillColor=none;fontStyle=1;fontSize=12;fontFamily=Helvetica;fontColor=#000000;" vertex="1" parent="1">
          <mxGeometry x="-320" y="998" width="50" height="30" as="geometry" />
        </mxCell>
        <mxCell id="em5ZbAB8ibV0XmdR91Io-168" value="NO" style="text;html=1;align=center;verticalAlign=middle;resizable=0;points=[];autosize=1;strokeColor=none;fillColor=none;fontStyle=1;fontSize=12;fontFamily=Helvetica;fontColor=#000000;" vertex="1" parent="1">
          <mxGeometry x="-590" y="993" width="40" height="30" as="geometry" />
        </mxCell>
      </root>
    </mxGraphModel>
  </diagram>
</mxfile>
